<svg xmlns="http://www.w3.org/2000/svg" viewBox="0 0 102.85 80.86"><defs><style>.cls-1{fill:#fff;}.cls-2{fill:none;stroke:#231f20;stroke-width:0.94px;}.cls-3{fill:#231f20;}</style></defs><title>logo</title><g id="Layer_2" data-name="Layer 2"><g id="Layer_1-2" data-name="Layer 1"><rect class="cls-1" x="41" y="33.41" width="5.83" height="16.75"/><rect class="cls-1" x="17.66" y="33.41" width="3.39" height="16.75"/><path class="cls-2" d="M58.66,80.39a40,40,0,1,0-40-40A40,40,0,0,0,58.66,80.39Z"/><rect class="cls-2" x="44.29" y="13.64" width="58.09" height="58.09"/><circle class="cls-2" cx="29.52" cy="42.69" r="29.05" transform="translate(-2.95 2.2) rotate(-4.07)"/><rect class="cls-1" x="6.87" y="33.41" width="75" height="16.75"/><path class="cls-3" d="M11.35,43.81a1.9,1.9,0,0,0,.36,1,2.11,2.11,0,0,0,1.69.59,3.41,3.41,0,0,0,1.16-.16,1.09,1.09,0,0,0,.85-1.1.8.8,0,0,0-.42-.72,4.32,4.32,0,0,0-1.31-.45l-1-.22A6.61,6.61,0,0,1,10.57,42a2.31,2.31,0,0,1-1-2.05,2.72,2.72,0,0,1,.94-2.12A4,4,0,0,1,13.3,37a4.2,4.2,0,0,1,2.59.79A2.83,2.83,0,0,1,17,40.08H15.11a1.36,1.36,0,0,0-.76-1.22,2.61,2.61,0,0,0-1.18-.24,2.32,2.32,0,0,0-1.26.31,1,1,0,0,0-.47.87.83.83,0,0,0,.47.76,5.56,5.56,0,0,0,1.26.39l1.66.39a4.14,4.14,0,0,1,1.64.69A2.29,2.29,0,0,1,17.32,44a2.72,2.72,0,0,1-1,2.16,4.23,4.23,0,0,1-2.83.86,4.68,4.68,0,0,1-3-.84,2.82,2.82,0,0,1-1.07-2.33Z"/><path class="cls-3" d="M20.42,37.25h2v5.83a3.38,3.38,0,0,0,.23,1.43,1.53,1.53,0,0,0,1.57.79,1.53,1.53,0,0,0,1.56-.79A3.38,3.38,0,0,0,26,43.08V37.25h2v5.83a4.93,4.93,0,0,1-.47,2.36C27,46.47,25.87,47,24.23,47s-2.75-.51-3.34-1.54a4.93,4.93,0,0,1-.47-2.36Z"/><path class="cls-3" d="M38.71,38.27a2.38,2.38,0,0,1,.43,1.44A1.94,1.94,0,0,1,38,41.65a2.06,2.06,0,0,1,1.09.83,2.51,2.51,0,0,1,.37,1.39A2.8,2.8,0,0,1,39,45.39a2.64,2.64,0,0,1-.67.74,2.68,2.68,0,0,1-1.07.48,7,7,0,0,1-1.34.13H31.67V37.25h4.58A2.93,2.93,0,0,1,38.71,38.27Zm-5.15.63V41h2.3a2,2,0,0,0,1-.23.91.91,0,0,0,.39-.84.84.84,0,0,0-.51-.87,3.53,3.53,0,0,0-1.12-.15Zm0,3.66v2.53h2.3a2.26,2.26,0,0,0,1-.17,1.19,1.19,0,0,0,.62-1.18,1,1,0,0,0-.6-1,2.59,2.59,0,0,0-1-.16Z"/><path class="cls-3" d="M43.36,38.74h2v1.93h-2Zm0,4.82h2v1.92h-2Z"/><path class="cls-3" d="M50.4,43.81a1.9,1.9,0,0,0,.36,1,2.11,2.11,0,0,0,1.69.59,3.45,3.45,0,0,0,1.16-.16,1.1,1.1,0,0,0,.85-1.1.8.8,0,0,0-.42-.72,4.4,4.4,0,0,0-1.32-.45l-1-.22A6.61,6.61,0,0,1,49.62,42a2.31,2.31,0,0,1-1-2.05,2.72,2.72,0,0,1,.94-2.12A4,4,0,0,1,52.35,37a4.22,4.22,0,0,1,2.59.79,2.83,2.83,0,0,1,1.12,2.31h-1.9a1.36,1.36,0,0,0-.76-1.22,2.63,2.63,0,0,0-1.19-.24,2.29,2.29,0,0,0-1.25.31,1,1,0,0,0-.47.87.83.83,0,0,0,.47.76,5.6,5.6,0,0,0,1.25.39l1.67.39a4.2,4.2,0,0,1,1.64.69A2.32,2.32,0,0,1,56.37,44a2.72,2.72,0,0,1-1,2.16,4.25,4.25,0,0,1-2.84.86,4.65,4.65,0,0,1-2.94-.84,2.8,2.8,0,0,1-1.07-2.33Z"/><path class="cls-3" d="M67.27,38.93h-5v2h4.61v1.64H62.25V45H67.5v1.71H60.32V37.25h6.95Z"/><path class="cls-3" d="M78.44,37.25v1.68H75.6v7.81h-2V38.93H70.76V37.25Z"/></g></g></svg>